<svg width="54" height="71" viewBox="0 0 54 71" fill="none" xmlns="http://www.w3.org/2000/svg">
<path d="M0.5 17.5785L0.523333 17.9119C0.604017 18.5116 0.899486 19.0617 1.35493 19.4601C1.81037 19.8586 2.39487 20.0783 3 20.0785H45.3067L34.58 30.8119L34.34 31.0919C33.9629 31.5992 33.792 32.2306 33.8617 32.8589C33.9314 33.4872 34.2365 34.0657 34.7156 34.4781C35.1947 34.8905 35.8123 35.106 36.4439 35.0813C37.0756 35.0567 37.6745 34.7937 38.12 34.3452L53.12 19.3319L53.36 19.0519C53.7157 18.5703 53.8868 17.9771 53.8421 17.38C53.7975 16.783 53.5401 16.2218 53.1167 15.7985L38.1167 0.808525L37.8367 0.56852C37.3548 0.211899 36.7609 0.0402908 36.1631 0.0849533C35.5653 0.129616 35.0035 0.387589 34.58 0.811852L34.34 1.09186C33.9834 1.57369 33.8118 2.16763 33.8564 2.76541C33.9011 3.3632 34.1591 3.92504 34.5833 4.34853L45.32 15.0785H3L2.66 15.0985C2.06149 15.1807 1.51297 15.4768 1.11589 15.9321C0.71881 16.3874 0.500025 16.9711 0.5 17.5752V17.5785ZM1.23333 54.3652L16.2167 69.3452L16.4967 69.5885C16.9782 69.9442 17.5715 70.1153 18.1685 70.0707C18.7655 70.026 19.3267 69.7686 19.75 69.3452L19.9933 69.0652C20.349 68.5836 20.5201 67.9904 20.4755 67.3934C20.4308 66.7963 20.1734 66.2352 19.75 65.8119L9.02333 55.0885H51.35L51.69 55.0619C52.2885 54.9797 52.837 54.6836 53.2341 54.2283C53.6312 53.773 53.85 53.1893 53.85 52.5852L53.8267 52.2485C53.7452 51.6494 53.4495 51.1001 52.9941 50.7023C52.5387 50.3046 51.9546 50.0853 51.35 50.0852L9.03 50.0885L19.7533 39.3452L19.9933 39.0652C20.3657 38.5575 20.5328 37.928 20.4613 37.3025C20.3897 36.6769 20.0848 36.1014 19.6073 35.6909C19.1299 35.2804 18.5152 35.0652 17.886 35.0883C17.2568 35.1113 16.6595 35.3709 16.2133 35.8152L1.23333 50.8285L0.993333 51.1119C0.63762 51.5934 0.466538 52.1867 0.511193 52.7837C0.555848 53.3807 0.813275 53.9419 1.23667 54.3652H1.23333Z" fill="#D1D4DC"/>
</svg>
