<svg width="19" height="19" viewBox="0 0 19 19" fill="none" xmlns="http://www.w3.org/2000/svg">
<path d="M18.068 5.75817L13.242 0.932166C12.9339 0.624105 12.5569 0.393673 12.1423 0.259856C11.7276 0.12604 11.2871 0.0926693 10.857 0.162495C10.4269 0.232321 10.0196 0.403344 9.66855 0.661472C9.31752 0.9196 9.03285 1.25744 8.838 1.64717L6.403 6.51717C6.3154 6.69276 6.16246 6.82703 5.977 6.89117L1.811 8.33117C1.61075 8.40036 1.43136 8.51932 1.28971 8.67687C1.14805 8.83442 1.04876 9.0254 1.00117 9.23185C0.953579 9.43831 0.959248 9.65348 1.01764 9.85714C1.07604 10.0608 1.18524 10.2463 1.335 10.3962L4.439 13.5002L0 17.9402V19.0002H1.06L5.5 14.5602L8.604 17.6652C8.75386 17.8152 8.93941 17.9246 9.1432 17.9831C9.34698 18.0416 9.56231 18.0474 9.76893 17.9998C9.97554 17.9522 10.1667 17.8528 10.3243 17.711C10.4819 17.5692 10.6009 17.3896 10.67 17.1892L12.11 13.0232C12.1739 12.8379 12.3078 12.685 12.483 12.5972L17.353 10.1622C17.7427 9.96731 18.0806 9.68265 18.3387 9.33162C18.5968 8.98059 18.7678 8.57325 18.8377 8.14316C18.9075 7.71308 18.8741 7.27256 18.7403 6.85789C18.6065 6.44323 18.3761 6.0663 18.068 5.75817Z" fill="#1A8D5F"/>
</svg>
